<?xml version="1.0" standalone="no"?>
<!DOCTYPE svg PUBLIC "-//W3C//DTD SVG 20010904//EN"
 "http://www.w3.org/TR/2001/REC-SVG-20010904/DTD/svg10.dtd">
<svg version="1.0" xmlns="http://www.w3.org/2000/svg"
 width="1024.000000pt" height="1024.000000pt" viewBox="0 0 1024.000000 1024.000000"
 preserveAspectRatio="xMidYMid meet">

<g transform="translate(0.000000,1024.000000) scale(0.100000,-0.100000)"
fill="#000000" stroke="none">
<path d="M2074 10193 c-22 -27 -50 -66 -63 -88 -41 -70 -99 -213 -111 -273 -6
-31 -16 -73 -21 -93 -27 -107 6 -298 77 -445 72 -147 190 -288 369 -438 39
-32 75 -63 80 -68 15 -15 -45 -6 -248 36 -177 36 -271 43 -337 27 -110 -28
-145 -42 -210 -80 -39 -24 -101 -69 -136 -101 -70 -63 -157 -106 -279 -136
-39 -9 -74 -21 -79 -25 -19 -17 27 -209 49 -209 6 0 35 -29 64 -65 182 -224
397 -335 651 -335 174 0 294 35 422 124 126 87 178 116 217 116 28 0 32 -3 26
-17 -4 -10 -11 -31 -17 -48 -5 -16 -13 -38 -18 -47 -5 -9 -12 -53 -16 -96 -6
-70 -4 -86 15 -126 26 -53 28 -49 -69 -178 -163 -217 -211 -396 -172 -643 18
-117 88 -255 179 -356 l33 -37 -23 -15 c-20 -13 -186 -61 -370 -108 -262 -66
-546 -436 -680 -884 -20 -65 -54 -248 -66 -350 -15 -129 -5 -411 19 -529 26
-124 55 -195 124 -300 120 -184 347 -344 600 -421 l88 -27 -5 -32 c-4 -17 -15
-85 -27 -151 -33 -194 -30 -190 -114 -215 -250 -74 -438 -146 -631 -241 -129
-63 -161 -82 -268 -154 l-88 -59 -129 -6 c-125 -5 -130 -6 -167 -36 -28 -23
-39 -40 -41 -64 -6 -54 5 -76 79 -157 118 -129 133 -146 171 -193 85 -106 259
-269 378 -354 30 -22 57 -41 59 -43 2 -1 -2 -10 -10 -19 -8 -10 -13 -20 -12
-23 1 -3 -1 -8 -4 -11 -4 -3 -3 0 0 6 7 12 -21 29 -31 19 -3 -3 0 -5 6 -5 17
0 15 -29 -3 -46 -21 -21 -19 -33 5 -27 15 4 20 0 20 -13 0 -15 -2 -16 -9 -5
-8 12 -12 12 -25 2 -20 -17 -12 -31 13 -24 14 3 20 -2 25 -23 10 -37 44 -84
62 -84 8 0 14 -4 14 -9 0 -5 12 -14 28 -20 15 -6 34 -15 42 -20 33 -20 85 -39
93 -34 4 3 17 -3 29 -14 11 -10 22 -16 24 -14 4 3 37 -8 89 -29 11 -5 37 -11
58 -15 24 -4 35 -10 31 -17 -4 -6 -3 -8 4 -4 13 8 133 -24 127 -34 -2 -4 7 -5
20 -2 14 2 25 0 25 -6 0 -5 6 -10 13 -9 36 1 57 -4 52 -13 -3 -5 0 -7 8 -4 7
2 34 0 58 -6 24 -6 60 -15 79 -20 64 -15 75 -18 135 -33 33 -8 95 -23 138 -32
42 -10 77 -22 77 -27 0 -5 3 -7 8 -5 8 5 191 -24 262 -42 25 -6 62 -13 83 -16
21 -3 35 -10 32 -14 -2 -5 3 -15 12 -22 15 -12 16 -12 10 3 -5 16 1 17 64 14
76 -4 95 -15 141 -82 13 -19 28 -34 35 -34 7 0 39 -16 72 -35 32 -19 64 -35
70 -35 6 0 11 -4 11 -10 0 -5 7 -7 15 -4 27 11 182 -75 240 -132 34 -35 102
-143 111 -178 5 -21 -1 -25 -53 -40 -160 -48 -154 -45 -147 -74 12 -56 68
-170 92 -189 9 -7 13 -13 10 -13 -9 0 128 -128 192 -181 75 -61 127 -99 136
-99 4 0 31 -16 60 -35 29 -19 57 -35 62 -35 6 0 12 -3 14 -7 5 -12 80 -51 135
-70 81 -28 319 -22 448 12 33 9 68 14 77 11 10 -2 16 -1 14 3 -3 4 12 13 32
20 49 16 77 28 136 58 36 18 51 21 56 12 6 -8 10 -6 14 7 8 25 62 55 83 47 12
-5 14 -3 8 7 -6 10 -4 12 7 7 10 -3 15 0 14 11 -1 10 8 18 21 20 12 2 20 9 18
15 -5 15 31 60 42 54 5 -3 8 7 9 21 1 51 16 102 28 95 6 -3 2 3 -8 15 -19 22
-19 22 0 22 15 0 16 2 5 9 -11 7 -9 11 8 21 17 8 26 8 36 0 11 -9 13 -6 10 15
-2 19 3 29 19 35 11 5 15 9 9 9 -7 1 -13 6 -13 12 0 5 5 7 10 4 6 -4 9 3 7 16
-2 12 3 36 11 53 9 16 15 44 15 60 -1 17 5 45 13 63 8 17 19 68 26 112 6 45
14 81 18 81 5 0 11 7 14 16 5 14 4 15 -8 5 -11 -10 -14 -5 -14 29 0 22 3 40 8
40 9 0 -27 70 -41 80 -4 3 -9 14 -12 25 -4 18 -5 18 -6 -2 -1 -31 -10 -29 -51
13 -19 20 -59 50 -87 66 -29 17 -53 36 -53 43 0 33 -128 201 -181 239 -24 16
-20 46 6 46 9 0 23 7 31 15 9 8 24 15 34 15 25 0 109 22 190 50 36 13 71 23
78 23 6 0 12 3 12 7 0 4 39 22 88 39 132 49 135 50 169 47 20 -2 30 1 26 7 -4
6 0 8 10 4 9 -3 16 -3 16 1 -3 21 4 29 35 40 18 7 41 9 51 5 12 -4 16 -3 11 5
-9 15 6 22 49 24 21 1 39 7 42 15 3 7 16 13 28 13 13 0 27 5 30 10 4 6 11 8
16 5 5 -4 9 -1 9 6 0 7 10 9 25 7 13 -3 23 -1 22 5 -2 13 37 33 120 62 63 22
93 19 93 -10 0 -8 5 -15 10 -15 6 0 16 -11 22 -25 6 -14 15 -25 21 -25 16 0
57 -44 57 -63 0 -9 3 -16 8 -15 4 2 26 -15 49 -36 24 -21 52 -45 63 -53 11 -8
17 -19 14 -25 -4 -6 -2 -8 3 -5 6 4 22 -2 34 -14 13 -11 18 -18 12 -14 -9 4
-11 1 -7 -9 3 -9 11 -13 18 -9 6 4 4 -4 -5 -17 -9 -14 -27 -25 -40 -26 -13 -1
-37 -6 -52 -13 -37 -14 -50 -14 -42 2 4 6 0 4 -8 -5 -8 -10 -21 -18 -30 -18
-9 0 -18 -4 -21 -9 -3 -5 -18 -12 -33 -16 -16 -3 -54 -20 -85 -36 -32 -16 -58
-27 -58 -25 0 2 -16 -10 -35 -26 -55 -49 -70 -135 -29 -169 19 -16 18 -29 -3
-30 -12 0 -13 -2 -5 -6 7 -3 19 1 27 7 12 10 16 9 21 -3 3 -9 31 -23 62 -32
32 -10 62 -20 67 -25 6 -4 65 -20 133 -36 92 -22 121 -32 117 -43 -4 -11 -3
-12 10 -1 8 7 22 9 32 6 26 -10 353 -36 466 -37 172 -1 259 19 432 101 22 11
53 22 70 26 16 4 36 14 44 21 7 8 20 12 28 9 8 -3 12 -2 9 2 -3 5 9 17 26 27
29 17 31 17 25 1 -5 -13 2 -11 25 9 22 19 38 25 57 21 14 -3 20 -3 14 0 -23
10 -14 21 12 16 20 -3 24 -1 19 12 -4 11 2 19 17 25 13 5 58 38 100 74 l75 65
127 4 c70 1 127 6 127 11 0 12 48 8 53 -5 3 -8 6 -6 6 4 1 13 9 17 34 16 19
-1 39 2 46 6 6 4 19 2 28 -6 11 -9 14 -9 10 -1 -8 13 6 18 73 27 56 7 150 25
170 31 41 13 67 18 97 19 17 1 29 4 27 7 -7 12 55 16 66 5 7 -6 10 -7 8 -1 -2
6 0 11 4 13 5 1 26 9 48 18 23 9 43 14 47 11 3 -4 18 0 34 9 19 9 29 11 29 4
0 -7 7 -5 15 4 8 8 16 36 18 63 l2 48 -115 33 c-63 18 -144 40 -180 49 -110
26 -403 82 -432 82 -32 1 -33 4 -13 61 17 49 20 139 5 190 -9 30 -8 37 10 52
11 9 20 18 20 21 0 3 -22 21 -49 41 -32 23 -71 67 -109 123 -65 97 -95 126
-164 162 -36 19 -53 37 -75 80 -35 68 -153 191 -213 221 -89 45 -263 36 -398
-22 -57 -24 -79 -23 -116 6 -38 29 -122 71 -158 80 -20 4 -32 17 -43 43 -9 20
-12 40 -8 43 5 4 78 26 163 49 85 23 193 53 240 66 47 14 96 27 110 30 14 3
72 16 130 29 58 13 148 34 200 46 52 12 98 24 102 28 4 4 11 36 17 71 19 119
29 87 27 -91 -1 -193 -2 -191 86 -363 43 -85 189 -296 245 -355 18 -19 38 -53
44 -75 14 -53 65 -99 231 -211 107 -73 155 -98 248 -132 63 -22 140 -46 170
-51 30 -5 170 -10 310 -11 240 -1 263 1 398 27 137 27 143 29 139 50 -2 13 0
23 4 23 5 0 12 15 17 32 7 26 23 41 83 78 41 25 92 59 112 75 48 38 121 137
175 236 l42 76 0 197 c0 161 -2 196 -14 196 -24 0 -38 -60 -42 -174 -2 -61 -6
-124 -9 -140 -33 -165 -65 -244 -125 -301 l-31 -30 37 79 c21 43 41 100 45
125 23 134 31 208 25 245 -17 101 -9 128 72 230 35 44 43 61 40 88 l-3 33 -22
-40 c-22 -42 -114 -135 -133 -135 -6 0 -32 11 -58 24 -26 13 -58 27 -72 31
-52 16 -246 113 -262 131 -9 11 -24 44 -32 74 -8 30 -19 69 -24 85 -5 17 -27
100 -47 185 -28 113 -36 166 -31 192 6 35 58 119 137 224 22 28 39 55 39 60 0
5 14 24 30 42 29 31 31 32 117 32 86 0 295 -22 341 -36 l22 -6 0 194 c0 177
-2 198 -19 220 -28 35 -156 130 -231 170 -196 106 -239 124 -440 182 -73 21
-246 46 -319 46 -159 0 -481 -89 -661 -182 -199 -103 -286 -179 -423 -372 -12
-17 -13 -13 -6 35 4 30 21 110 39 179 17 69 38 159 46 200 14 73 36 170 67
295 8 33 23 96 32 140 9 44 23 107 30 140 37 165 74 376 75 428 0 23 -9 33
-49 59 -51 31 -60 45 -86 143 l-14 50 147 151 c81 83 150 152 155 153 14 2 7
-22 -10 -35 -28 -20 -8 -27 26 -9 l31 16 -15 36 c-13 31 -13 39 -1 57 23 35
231 246 243 246 10 0 34 -49 53 -112 11 -37 30 -60 30 -38 0 6 -14 52 -30 101
-17 49 -28 95 -24 102 12 19 83 106 154 187 37 41 77 92 89 113 23 38 36 39
43 3 3 -21 33 -44 44 -34 8 9 -29 105 -65 168 -43 76 -160 249 -250 369 -48
62 -99 132 -116 155 -65 88 -151 176 -175 176 -8 0 -34 15 -57 33 -23 17 -55
41 -70 52 -50 36 -254 165 -261 165 -4 0 -18 9 -32 20 -44 34 -71 26 -105 -31
-16 -28 -65 -85 -108 -126 -87 -83 -70 -79 -205 -46 -35 8 -66 12 -69 9 -3 -3
0 -8 8 -10 8 -2 44 -14 81 -26 37 -12 70 -25 73 -29 4 -7 -217 -233 -245 -251
-6 -4 -37 5 -68 21 -62 32 -82 36 -82 15 0 -8 21 -21 50 -31 27 -9 52 -20 55
-25 3 -5 -20 -32 -51 -62 -31 -29 -79 -77 -107 -105 -28 -29 -59 -53 -69 -53
-10 0 -36 9 -58 20 -48 24 -68 26 -50 5 7 -8 24 -21 39 -29 14 -7 51 -27 82
-43 144 -76 333 -256 395 -376 l16 -29 -119 -119 c-65 -66 -124 -119 -130
-119 -7 0 -13 12 -13 28 0 33 -31 102 -53 121 -10 7 -17 19 -17 25 0 15 -94
105 -145 139 -22 14 -66 37 -97 51 -32 14 -58 32 -58 40 0 8 48 62 106 121 58
58 104 108 101 111 -11 11 -57 -9 -57 -25 0 -9 -49 -66 -110 -126 -60 -60
-110 -115 -110 -122 0 -8 14 -13 38 -13 46 0 149 -48 216 -102 53 -41 117
-124 160 -204 33 -62 33 -70 -4 -101 -42 -35 -38 -50 5 -17 l35 26 11 -28 c6
-16 13 -46 16 -66 3 -21 10 -38 15 -38 19 0 21 36 5 96 -15 57 -15 66 -1 93 9
17 22 31 31 31 8 0 55 41 103 90 79 81 89 88 101 73 32 -38 361 -593 400 -673
22 -47 46 -101 52 -122 6 -17 -46 -82 -162 -200 l-56 -58 -95 -14 c-52 -8
-160 -27 -240 -41 -80 -14 -183 -32 -230 -40 -144 -23 -257 -43 -465 -84 -110
-22 -249 -46 -310 -55 -60 -9 -159 -25 -220 -36 -60 -11 -137 -24 -170 -30
-33 -5 -109 -19 -170 -30 -107 -20 -254 -47 -385 -70 -36 -7 -157 -29 -270
-50 -113 -21 -223 -42 -245 -45 -48 -8 -34 -5 -97 -20 l-53 -11 -22 -105 c-31
-141 -58 -286 -89 -459 -14 -80 -31 -154 -38 -165 -9 -13 -38 -25 -87 -36 -41
-9 -104 -25 -142 -35 -37 -9 -71 -14 -74 -10 -15 15 -8 151 10 189 26 53 110
194 146 242 16 22 33 49 37 60 4 11 13 27 21 36 26 31 84 184 93 249 13 88 12
208 -1 272 -13 59 -54 151 -75 169 -8 6 -14 15 -14 19 0 4 28 30 62 59 l62 52
148 -7 c166 -8 169 -7 199 62 42 94 36 211 -18 374 -14 41 -26 86 -26 100 0
14 14 76 31 138 35 122 40 204 21 307 -15 85 -47 140 -131 230 -66 71 -71 79
-54 89 63 37 120 92 138 134 40 91 95 582 71 635 -14 30 -62 37 -264 37 -80 0
-148 3 -151 6 -4 3 -2 20 4 37 5 18 10 41 9 52 -2 46 23 81 53 76 92 -18 107
-19 142 -9 68 18 173 150 207 259 9 31 17 87 17 126 l0 70 65 38 c135 79 286
217 341 311 146 249 179 400 134 603 -25 115 -60 194 -136 313 -89 138 -128
178 -171 178 l-35 0 60 -67 c32 -38 72 -89 89 -114 45 -68 132 -263 148 -333
17 -69 20 -196 5 -196 -5 0 -33 14 -62 31 -96 58 -182 101 -233 119 -49 17
-50 18 -48 56 11 163 8 199 -25 304 -18 58 -42 126 -54 153 -19 42 -25 47 -55
47 l-33 0 30 -42 c34 -46 59 -120 85 -247 19 -94 16 -144 -15 -245 -17 -54
-30 -73 -92 -135 -85 -84 -173 -132 -252 -139 -48 -4 -56 -1 -78 23 -22 23
-28 25 -47 15 -33 -17 -59 -3 -85 48 -13 26 -37 64 -52 84 -62 80 -68 92 -65
126 2 28 -5 40 -49 82 -128 122 -318 190 -534 190 -112 0 -450 -51 -500 -76
-36 -17 -119 -7 -226 29 -146 49 -193 58 -251 47 -65 -12 -265 -108 -297 -142
-32 -35 -90 -134 -106 -182 -10 -28 -24 -47 -47 -60 -55 -30 -135 -97 -163
-137 -14 -20 -14 -20 -57 7 -49 30 -138 101 -155 123 -6 8 -31 53 -55 100 -44
85 -44 87 -43 186 1 80 8 122 33 209 38 132 38 136 6 136 -14 0 -25 -1 -25 -3
0 -2 -13 -68 -30 -147 -37 -176 -38 -235 -5 -339 30 -95 88 -178 171 -245 74
-61 105 -76 243 -120 100 -31 127 -36 215 -36 220 0 314 -38 391 -157 33 -50
63 -128 53 -138 -9 -10 -242 -25 -301 -20 -264 24 -535 114 -545 181 -2 11
-14 32 -27 48 -23 27 -24 27 -34 7 -6 -11 -11 -31 -11 -45 l0 -26 -42 17 c-56
21 -98 60 -99 92 l-1 26 -7 -24 -7 -24 -15 24 c-33 53 -90 180 -96 213 -5 30
-10 36 -29 36 -28 0 -31 -19 -10 -58 17 -35 37 -91 41 -119 4 -25 9 -34 55
-95 19 -25 48 -54 63 -63 33 -20 31 -41 -4 -37 -23 3 -119 92 -119 110 0 5 -8
16 -17 25 -16 13 -20 13 -31 1 -8 -9 -9 -14 -2 -14 6 0 9 -4 6 -9 -3 -5 -14
-8 -24 -6 -73 15 -73 15 -62 35 8 14 8 20 0 20 -6 0 -9 4 -5 10 3 5 13 7 23 4
14 -5 15 -4 2 5 -11 7 -19 6 -31 -5 -15 -14 -19 -13 -33 7 -12 17 -13 26 -4
36 9 11 8 18 -4 29 -11 11 -18 13 -23 5 -3 -6 -3 -10 2 -9 4 2 9 -1 11 -7 8
-22 -15 -14 -26 10 -9 19 -9 24 1 22 6 -1 12 7 12 17 0 24 33 37 60 23 17 -8
17 -6 -4 16 l-23 25 23 -3 c13 -1 32 -6 42 -10 14 -6 20 -2 24 14 3 11 9 21
14 21 5 0 9 11 9 23 0 13 7 46 15 73 14 46 14 51 -6 77 -24 33 -49 100 -49
134 0 33 36 132 56 154 10 11 15 22 11 25 -13 13 -45 -18 -70 -68 -37 -73 -38
-167 -2 -238 24 -48 25 -59 9 -137 -3 -18 -9 -20 -43 -16 -25 3 -50 0 -69 -10
-17 -8 -33 -12 -36 -9 -31 30 42 387 75 366 5 -3 9 6 9 20 0 14 4 26 9 26 4 0
31 35 59 78 47 75 69 99 137 157 l30 25 -66 0 -66 0 -39 -47z m2331 -258 c80
-15 199 -71 237 -112 30 -32 12 -29 -97 16 -105 44 -257 71 -400 71 -80 0
-242 -22 -287 -39 -12 -4 -45 -11 -72 -15 l-48 -8 20 22 c16 17 52 28 164 50
170 33 360 39 483 15z m306 -182 c13 -16 12 -17 -3 -4 -10 7 -18 15 -18 17 0
8 8 3 21 -13z m79 -99 c0 -12 -10 -28 -22 -36 -27 -18 -108 -30 -108 -17 0 5
6 9 13 9 14 0 67 47 67 59 0 5 11 8 25 7 18 -1 25 -7 25 -22z m825 -29 l55
-25 0 -53 c0 -70 -23 -145 -57 -189 -16 -19 -39 -49 -53 -67 -34 -46 -134
-122 -208 -161 -35 -18 -67 -41 -71 -52 -6 -16 -15 -6 -53 54 -26 40 -45 74
-44 76 2 1 23 -5 47 -13 29 -10 39 -11 28 -2 -9 6 -48 37 -87 66 -40 30 -72
60 -72 66 0 6 37 29 82 50 136 65 199 120 283 243 26 40 31 43 62 37 18 -3 57
-17 88 -30z m-779 -42 c7 -10 14 -31 14 -46 0 -19 7 -31 23 -38 21 -9 21 -9
-3 -4 -14 2 -30 5 -37 5 -17 0 -73 49 -73 64 0 10 29 27 59 35 2 1 10 -7 17
-16z m929 -33 c17 -11 47 -29 68 -40 35 -19 38 -24 31 -53 -3 -17 -10 -38 -14
-47 -21 -40 -40 -90 -40 -104 0 -9 -3 -16 -8 -16 -4 0 -17 -26 -30 -59 -19
-50 -39 -74 -141 -171 -132 -126 -283 -226 -289 -193 -2 10 -15 51 -29 91 -22
67 -23 75 -10 96 11 16 29 25 59 29 24 4 74 11 111 17 67 10 127 33 127 48 0
5 -30 5 -67 0 -37 -4 -68 -7 -69 -5 -1 1 31 30 72 65 117 99 174 202 174 314
0 54 8 58 55 28z m-1135 -35 c91 -24 215 -75 245 -101 15 -13 31 -24 35 -24
10 0 90 -80 88 -88 -1 -4 17 -36 40 -71 23 -35 42 -69 42 -74 0 -6 9 -29 20
-51 30 -63 50 -154 49 -221 l-1 -60 -17 75 c-10 41 -23 88 -29 103 -7 16 -12
39 -12 53 0 13 -4 32 -9 42 -5 9 -15 30 -22 46 -8 15 -25 33 -39 38 -15 6 -20
12 -12 15 10 4 10 8 1 19 -6 8 -16 11 -22 7 -5 -3 -7 -1 -3 5 3 5 2 12 -4 14
-5 1 -11 16 -12 31 -2 22 -7 27 -23 25 -11 -1 -26 1 -33 6 -10 6 -9 11 5 22
16 12 16 13 1 14 -9 0 -29 11 -45 24 -64 53 -172 110 -252 132 -46 13 -86 26
-89 29 -10 10 43 5 98 -10z m-1707 -112 c-7 -2 -19 -2 -25 0 -7 3 -2 5 12 5
14 0 19 -2 13 -5z m-706 -220 c30 -24 27 -39 -6 -28 -25 8 -47 52 -42 85 4 25
4 24 12 -5 5 -16 21 -40 36 -52z m-57 -10 c0 -12 59 -43 80 -43 10 0 21 4 24
9 3 5 39 -3 78 -18 40 -15 98 -35 129 -44 31 -10 65 -26 75 -35 40 -37 90 -52
171 -52 48 0 86 5 97 13 15 11 3 16 -86 36 -91 21 -168 52 -168 68 0 7 48 -5
85 -22 158 -70 254 -81 670 -71 48 1 49 1 56 -34 4 -19 9 -60 10 -90 l3 -54
-39 -8 c-21 -5 -43 -12 -49 -17 -37 -28 -235 -45 -496 -43 -167 2 -185 4 -274
33 -53 17 -104 50 -201 129 -43 35 -215 212 -226 232 -8 16 -5 18 26 18 19 0
35 -3 35 -7z m391 -40 c13 -16 12 -17 -3 -4 -10 7 -18 15 -18 17 0 8 8 3 21
-13z m2679 -349 c0 -19 3 -34 8 -34 4 0 8 -36 10 -79 2 -72 1 -81 -18 -91 -15
-8 -20 -19 -18 -44 1 -22 -5 -40 -20 -56 -12 -13 -22 -28 -22 -32 0 -18 -54
-58 -76 -58 -13 0 -24 2 -24 5 0 3 15 30 34 58 18 29 41 70 51 91 26 54 53
192 49 250 -3 42 -2 46 11 36 8 -7 15 -28 15 -46z m-330 -364 c0 -5 -4 -10
-10 -10 -5 0 -10 5 -10 10 0 6 5 10 10 10 6 0 10 -4 10 -10z m3320 -114 c41
-27 116 -75 165 -107 101 -65 204 -141 205 -151 0 -3 -58 -64 -130 -135 l-130
-129 -61 62 c-34 34 -66 69 -71 78 -14 24 -158 131 -211 156 -26 12 -47 25
-47 29 0 4 30 36 66 71 37 37 78 90 95 123 17 32 33 57 37 55 4 -2 41 -25 82
-52z m-5495 -22 c49 -9 123 -27 164 -41 54 -17 76 -21 81 -12 9 13 14 12 255
-47 335 -81 312 -79 511 -59 118 12 207 15 294 10 69 -4 159 -8 200 -10 75 -4
75 -4 115 -49 30 -34 44 -43 55 -36 25 16 62 11 86 -11 l21 -20 30 53 c47 83
47 83 342 83 141 0 298 -4 349 -9 l93 -9 -3 -41 c-3 -39 -5 -42 -55 -59 l-52
-19 -58 28 c-53 26 -67 29 -158 28 -106 -2 -215 -19 -215 -35 0 -16 -45 -28
-131 -33 -46 -3 -86 -6 -89 -6 -3 0 2 -6 10 -13 39 -31 73 -91 77 -136 l5 -46
-20 30 c-22 36 -50 60 -58 52 -4 -3 1 -38 10 -78 9 -39 16 -87 16 -105 0 -47
46 -155 85 -197 25 -27 43 -37 79 -42 25 -4 49 -11 51 -16 3 -4 12 -6 20 -3 8
3 28 -1 45 -9 25 -13 42 -14 93 -6 173 28 235 128 245 399 l5 145 42 28 c24
15 45 27 49 27 3 0 6 -18 6 -40 0 -41 -5 -76 -40 -313 -11 -76 -19 -141 -16
-146 3 -4 -28 -29 -68 -55 -90 -56 -195 -86 -307 -86 -89 0 -150 17 -221 63
-41 27 -55 45 -92 122 -24 50 -50 109 -57 133 -11 38 -19 47 -41 43 -5 0 -8 3
-8 9 0 5 6 10 13 11 10 0 10 2 0 6 -7 2 -13 18 -13 35 0 43 -48 88 -94 88 -46
0 -64 -33 -64 -116 0 -53 -7 -76 -48 -160 -70 -145 -89 -170 -143 -191 -69
-27 -253 -23 -340 6 -74 26 -141 77 -168 127 -10 20 -26 51 -35 69 -22 43 -58
179 -58 221 0 50 -17 84 -66 130 -70 66 -253 128 -502 169 -18 3 -50 14 -70
25 -20 11 -50 20 -67 20 -16 0 -54 7 -84 15 -29 7 -78 17 -109 21 -74 9 -106
26 -89 46 20 25 50 38 77 33 14 -3 65 -12 115 -21z m1765 -124 c-20 -13 -43
-13 -35 0 3 6 16 10 28 10 18 0 19 -2 7 -10z m3483 -111 c82 -41 135 -85 241
-196 59 -62 85 -97 80 -105 -5 -7 -34 -40 -65 -73 -32 -33 -67 -72 -79 -87
-12 -16 -27 -28 -33 -28 -7 0 -22 -16 -35 -35 -27 -42 -37 -44 -56 -6 -22 42
-157 163 -272 244 l-102 71 125 123 c68 68 126 123 129 123 3 0 33 -14 67 -31z
m-2857 -44 c27 -19 52 -43 56 -52 10 -28 9 -201 -3 -273 -26 -161 -90 -222
-234 -222 -97 0 -180 32 -245 96 -28 27 -50 53 -50 58 0 4 38 5 85 2 104 -7
123 -1 141 42 21 50 18 56 -17 38 -49 -25 -56 -8 -34 78 11 41 19 107 19 150
l0 78 31 5 c16 2 55 7 85 10 30 3 62 10 70 15 25 16 45 11 96 -25z m3570 -30
c30 -31 65 -72 79 -93 14 -20 68 -93 120 -162 52 -69 130 -183 175 -255 79
-128 95 -175 67 -192 -13 -7 -123 -129 -224 -248 -42 -49 -43 -50 -49 -25 -35
125 -316 558 -466 716 l-39 41 135 136 c74 76 137 137 141 137 3 0 31 -25 61
-55z m-988 -215 c31 -22 77 -53 102 -71 56 -38 230 -209 230 -225 0 -7 -39
-54 -87 -105 -49 -51 -102 -108 -119 -126 l-31 -34 -67 90 c-77 103 -142 166
-256 246 -44 31 -80 60 -80 64 0 4 46 51 101 104 71 68 109 97 126 97 13 0 50
-18 81 -40z m673 -77 c70 -74 137 -164 248 -333 97 -148 221 -374 221 -402 0
-7 -29 -44 -65 -83 -35 -38 -90 -100 -122 -137 -32 -37 -61 -67 -64 -67 -3 -1
-31 52 -62 117 -116 239 -241 438 -394 629 -29 35 -53 67 -53 71 0 3 20 26 44
51 24 25 77 81 117 124 40 42 75 77 79 77 3 0 26 -21 51 -47z m-3695 -274 c28
-21 59 -39 70 -39 30 -1 61 -32 68 -70 5 -29 2 -37 -21 -57 -24 -19 -26 -24
-13 -33 22 -15 120 -13 120 3 0 6 -14 30 -30 51 -17 22 -30 45 -30 52 0 24
103 34 188 19 35 -6 57 -22 131 -94 118 -114 141 -159 141 -278 0 -62 -8 -116
-26 -183 -47 -177 -49 -193 -29 -241 55 -136 71 -280 42 -364 -17 -50 -35 -54
-130 -25 -166 51 -262 39 -498 -66 -206 -90 -226 -98 -319 -124 -82 -22 -214
-26 -290 -9 -52 11 -195 81 -232 112 -14 12 -37 31 -50 42 -13 11 -33 34 -45
50 -57 84 -78 420 -34 538 13 31 28 63 34 70 10 10 70 127 126 246 9 19 36 54
60 78 25 24 42 46 38 49 -11 12 -62 -16 -105 -56 -33 -31 -42 -47 -42 -73 0
-32 -29 -89 -30 -58 0 8 -14 -4 -30 -25 -17 -22 -38 -47 -46 -57 -9 -11 -13
-21 -11 -24 3 -2 -8 -32 -24 -66 -16 -34 -29 -69 -29 -77 0 -9 -5 -21 -11 -27
-5 -5 -13 -32 -15 -59 -3 -27 -13 -62 -22 -79 -16 -30 -17 -29 -30 104 -10 96
-11 140 -4 152 6 9 14 34 18 55 24 130 180 323 304 376 49 21 187 68 201 68 5
0 28 15 52 33 162 121 176 126 367 125 l135 0 51 -39z m3419 -17 c22 -21 60
-67 85 -102 25 -35 59 -83 77 -107 68 -89 122 -185 228 -398 41 -82 75 -157
75 -165 0 -8 -63 -78 -140 -155 -77 -77 -140 -134 -140 -126 0 16 -74 168
-127 262 -21 37 -56 98 -77 135 -76 134 -140 240 -203 336 -39 59 -61 103 -57
110 4 7 38 45 75 83 37 39 86 91 110 117 24 26 46 47 49 47 3 0 23 -16 45 -37z
m-4508 -1054 c-3 -8 -6 -5 -6 6 -1 11 2 17 5 13 3 -3 4 -12 1 -19z m63 -188
c7 -14 19 -29 26 -33 8 -4 14 -15 14 -22 0 -8 3 -15 8 -15 4 0 31 -20 61 -44
30 -24 75 -55 100 -67 25 -13 48 -27 51 -31 3 -3 12 -6 20 -6 29 2 50 -2 50
-9 0 -12 -172 -8 -203 5 -16 7 -42 12 -59 12 -17 0 -50 11 -74 25 -50 30 -68
69 -52 116 7 20 9 69 5 133 l-6 101 23 -70 c12 -38 28 -81 36 -95z m4615 81
c-5 -29 -3 -41 8 -48 18 -10 51 -62 45 -69 -5 -4 -221 -34 -225 -30 -2 1 171
185 175 186 2 0 1 -18 -3 -39z m-3385 -171 c-30 -28 -89 -76 -130 -107 -41
-31 -79 -62 -85 -68 -26 -31 -196 -158 -325 -245 -56 -37 -73 -44 -130 -47
-56 -4 -76 -1 -145 27 -105 42 -137 59 -131 69 3 4 78 30 168 57 104 31 192
64 243 92 44 25 98 54 120 66 22 11 42 24 43 29 2 4 9 7 14 7 6 0 79 34 162
76 159 81 186 92 226 93 22 1 19 -4 -30 -49z m-90 -165 c0 -26 -14 -33 -25
-15 -9 14 1 40 15 40 5 0 10 -11 10 -25z m-40 -38 c0 -8 -10 -23 -23 -35 -23
-22 -24 -22 -41 -4 -13 15 -14 21 -4 29 30 24 68 29 68 10z m-2479 -326 c1
-53 3 -121 3 -151 1 -30 4 -57 7 -60 3 -3 10 -36 15 -75 6 -38 14 -78 19 -88
5 -13 3 -17 -6 -15 -9 2 -14 -6 -14 -22 0 -20 7 -26 37 -35 44 -12 73 -35 44
-35 -23 0 -16 -22 12 -36 14 -7 18 -14 12 -24 -7 -11 -13 -11 -33 3 -57 37
-88 103 -116 247 -12 61 -16 341 -5 384 11 47 21 10 25 -93z m7164 -430 c81
-18 147 -34 183 -46 15 -5 -11 -61 -51 -109 l-24 -29 -77 13 c-58 10 -121 11
-249 5 -95 -4 -186 -9 -204 -9 -17 -1 -35 -5 -39 -9 -14 -14 -82 -7 -102 11
-20 17 -36 91 -23 109 8 11 154 60 235 79 77 18 228 11 351 -15z m-6975 -116
c-7 -8 -21 -15 -31 -15 -26 0 -13 28 14 32 29 5 32 2 17 -17z m125 15 c36 -9
280 -48 407 -66 54 -7 85 -25 73 -43 -9 -16 -55 -10 -270 31 -97 18 -163 36
-170 44 -6 8 -33 21 -60 29 -57 15 -41 19 20 5z m6917 -114 c23 -11 63 -83 95
-175 20 -56 42 -93 87 -144 50 -59 60 -76 63 -116 4 -44 1 -50 -57 -121 -33
-41 -72 -95 -87 -120 -14 -25 -44 -64 -66 -87 l-41 -43 -267 0 c-147 0 -278 4
-292 9 -22 9 -45 39 -181 241 -66 98 -67 101 -43 127 11 12 25 31 31 42 34 61
126 215 163 273 24 36 43 71 43 76 0 24 39 41 105 45 112 6 428 1 447 -7z
m-772 -592 c41 -62 94 -139 117 -173 l43 -61 -51 -158 c-28 -86 -59 -182 -69
-212 -10 -30 -28 -92 -40 -136 -24 -90 -19 -86 -151 -134 -63 -23 -190 -96
-202 -117 -12 -20 -51 -15 -73 10 -11 12 -48 81 -83 152 -35 72 -79 161 -98
200 -36 71 -51 159 -33 194 5 9 13 68 19 131 11 109 28 183 65 276 16 38 21
42 89 64 40 12 91 29 115 36 23 8 59 14 80 15 20 1 66 7 102 14 36 7 72 12 80
11 8 0 49 -51 90 -112z m-601 10 c2 -2 -3 -34 -12 -71 -9 -38 -21 -108 -28
-158 -21 -156 -22 -159 -68 -211 -26 -29 -46 -44 -48 -36 -3 6 -9 10 -14 6
-15 -9 -11 15 21 137 17 63 39 152 50 199 32 139 38 153 69 145 14 -4 28 -8
30 -11z m-6029 -804 c0 -11 -4 -20 -10 -20 -5 0 -10 9 -10 20 0 11 5 20 10 20
6 0 10 -9 10 -20z m-56 -41 c-4 -6 -8 -31 -10 -55 -1 -23 -10 -58 -19 -77 -22
-48 -116 -86 -360 -147 -174 -44 -249 -67 -508 -160 -108 -38 -230 -57 -269
-41 -20 7 -28 18 -28 35 0 24 2 24 83 24 93 0 108 2 131 21 9 7 16 10 16 6 0
-3 14 8 31 25 18 17 37 29 44 26 7 -2 15 5 18 16 4 14 11 19 21 15 9 -4 15 -2
13 3 -2 11 132 100 151 100 21 0 128 38 195 69 92 44 147 67 192 81 22 7 45
16 50 20 6 4 37 11 70 15 33 4 74 13 90 20 38 17 99 19 89 4z m7696 -34 c27
-14 73 -34 102 -46 29 -11 81 -34 116 -50 35 -16 74 -32 88 -35 15 -4 26 -15
29 -30 3 -13 7 -36 10 -50 3 -14 6 -68 6 -120 0 -105 -32 -242 -82 -353 -16
-35 -29 -70 -29 -77 0 -18 -76 -69 -138 -93 -127 -50 -237 -61 -355 -37 -75
16 -215 78 -222 98 -2 7 -6 110 -8 228 -1 118 -6 223 -11 232 -6 13 0 20 28
32 91 38 179 101 291 210 66 63 121 115 123 116 1 0 25 -11 52 -25z m-963 -56
c79 -85 302 -253 378 -285 30 -12 37 -22 51 -72 18 -60 27 -303 11 -318 -4 -4
-21 0 -36 9 -16 9 -44 17 -63 16 l-33 -1 40 -9 c22 -5 50 -18 63 -27 l23 -18
-21 -27 c-28 -35 -141 -92 -200 -102 -25 -4 -56 -14 -70 -23 -55 -35 -205 -22
-264 22 -17 13 -63 40 -102 59 -40 20 -95 59 -124 87 l-53 51 7 78 c5 68 -11
283 -30 388 -6 30 -2 35 60 80 60 44 87 60 156 92 36 16 133 49 147 50 7 1 34
-22 60 -50z m-1287 -288 c-79 -25 -195 -86 -264 -138 -32 -24 -64 -42 -72 -39
-7 3 -16 0 -20 -6 -4 -7 -3 -8 4 -4 18 11 14 -10 -5 -25 -11 -10 -14 -10 -9
-1 9 15 -6 16 -21 1 -8 -8 -13 -7 -18 2 -5 8 -4 10 3 5 7 -4 12 -1 12 8 0 9 5
16 11 16 5 0 7 5 3 12 -5 7 -3 8 6 3 10 -6 12 -4 7 9 -5 12 -3 16 5 14 7 -3
18 5 23 16 32 65 217 146 330 145 l60 -1 -55 -17z m182 -268 c-6 -2 -10 -9 -6
-14 3 -5 0 -9 -5 -9 -12 0 -14 13 -4 23 3 4 11 7 17 6 6 0 5 -3 -2 -6z m143
-14 c16 -6 12 -8 -16 -8 -21 -1 -42 -8 -50 -17 -8 -10 -24 -14 -45 -12 -25 3
-31 1 -26 -12 4 -11 0 -10 -16 4 -21 19 -31 43 -13 32 5 -4 21 -2 34 3 17 7
27 7 31 0 2 -5 3 -4 2 3 -2 7 -9 12 -15 10 -7 -1 -10 2 -6 8 6 10 84 3 120
-11z m545 4 c0 -10 -5 -25 -10 -33 -7 -11 -10 -7 -10 18 0 17 5 32 10 32 6 0
10 -8 10 -17z m-724 -9 c-4 -10 1 -25 11 -36 14 -15 14 -21 3 -31 -10 -10 -12
-9 -7 6 4 9 2 17 -3 17 -6 0 -10 -4 -10 -9 0 -5 -8 -12 -17 -15 -15 -6 -15 -4
1 13 15 17 16 23 6 36 -16 19 -31 19 -24 0 4 -8 2 -15 -4 -15 -5 0 -12 9 -15
19 -3 15 1 21 17 24 43 9 48 7 42 -9z m-96 -24 c-13 -8 -13 -10 2 -10 9 0 19
6 22 13 4 6 4 2 2 -11 -4 -19 -1 -22 16 -16 14 4 18 2 14 -5 -4 -6 -15 -11
-24 -11 -15 -1 -14 -3 3 -16 19 -15 19 -15 -5 -9 -24 6 -67 12 -102 14 -10 0
-18 8 -18 17 0 10 6 14 15 10 8 -3 15 -2 15 2 0 5 12 13 28 19 35 14 51 15 32
3z m575 -170 c33 -32 34 -35 39 -129 3 -53 8 -123 11 -156 l6 -60 -26 44 c-14
23 -25 52 -25 62 0 38 -18 17 -50 -58 -27 -65 -62 -126 -135 -231 -20 -29
-186 -192 -196 -192 -6 0 -27 -13 -47 -30 -67 -53 -141 -68 -198 -39 -11 6
-33 35 -47 65 -44 88 -36 196 26 368 26 72 42 99 82 140 79 80 160 142 230
175 196 93 268 101 330 41z m-2495 -550 c-8 -5 -19 -10 -25 -10 -5 0 -3 5 5
10 8 5 20 10 25 10 6 0 3 -5 -5 -10z m-809 -157 c13 -16 12 -17 -3 -4 -17 13
-22 21 -14 21 2 0 10 -8 17 -17z m217 -243 c16 0 22 -6 22 -21 0 -11 4 -28 10
-38 9 -17 1 -19 -103 -24 -62 -3 -143 -15 -182 -25 -38 -11 -106 -29 -150 -41
-44 -12 -101 -32 -127 -44 -51 -25 -69 -17 -43 20 13 19 150 91 203 107 12 4
55 23 95 41 69 33 76 34 162 30 50 -3 100 -5 113 -5z m334 -282 c-9 -9 -12 -7
-12 12 0 19 3 21 12 12 9 -9 9 -15 0 -24z m-262 -75 c30 -8 80 -24 111 -34 31
-11 63 -19 71 -19 9 0 21 -6 27 -14 10 -11 8 -16 -6 -20 -14 -4 -19 -17 -20
-48 -3 -56 -56 -162 -137 -268 -97 -129 -209 -210 -441 -322 -106 -51 -113
-53 -195 -52 -94 0 -137 16 -206 76 -36 32 -36 33 -31 90 3 33 9 64 14 71 5 7
16 28 23 47 20 51 55 104 142 211 208 257 415 347 648 282z"/>
<path d="M3757 8028 c-71 -8 -167 -43 -180 -65 -8 -14 13 -186 30 -253 30
-120 79 -196 155 -244 32 -21 206 -36 277 -25 102 16 124 41 162 179 17 65 19
88 12 139 -8 48 -7 61 4 65 14 6 9 50 -9 72 -11 15 0 44 17 44 7 0 23 9 36 21
l24 20 -41 -5 c-48 -7 -57 -1 -41 25 16 25 1 36 -21 16 -24 -21 -30 -21 -99 3
-63 22 -181 25 -326 8z m401 -88 c7 -11 9 -20 4 -20 -10 0 -32 22 -32 32 0 15
15 8 28 -12z m-125 -99 c4 0 12 -1 17 -1 13 0 13 -56 0 -81 -12 -21 -52 -26
-68 -6 -34 42 -18 113 22 97 11 -4 24 -8 29 -9z m-120 -11 c3 -11 -3 -30 -13
-43 -15 -18 -22 -20 -37 -11 -39 24 -28 74 16 74 20 0 30 -6 34 -20z"/>
<path d="M4680 7328 c-14 -6 -34 -10 -45 -9 -17 2 -17 0 -5 -8 8 -6 13 -11 10
-12 -3 0 -45 -4 -95 -9 -202 -19 -346 -48 -361 -72 -3 -5 -1 -15 5 -21 7 -7
16 -6 30 7 12 11 27 16 37 12 14 -5 13 -10 -10 -31 -15 -14 -31 -23 -36 -20
-4 3 -10 -1 -13 -8 -3 -8 10 -33 29 -57 19 -24 37 -54 40 -67 4 -12 10 -21 14
-18 5 3 5 19 0 35 -9 32 -8 33 28 30 27 -2 27 0 3 42 -10 18 -17 47 -16 63 1
27 5 30 41 33 21 1 80 9 129 17 50 8 127 17 172 21 89 7 125 22 106 45 -6 8
-11 19 -12 24 0 14 -22 16 -51 3z"/>
<path d="M5050 7112 c-27 -13 -36 -25 -42 -55 -21 -104 78 -335 124 -289 9 9
6 18 -15 40 -33 34 -33 38 -4 46 24 6 60 56 71 98 8 36 -16 94 -43 103 -22 7
-29 25 -11 25 42 0 80 -100 66 -170 -8 -44 0 -37 30 25 25 50 26 59 15 94 -6
22 -24 53 -40 70 -24 25 -37 31 -73 31 -23 0 -59 -8 -78 -18z m31 -154 c-9
-31 -9 -31 -10 -6 -1 30 11 67 16 51 2 -6 0 -26 -6 -45z"/>
<path d="M3970 7013 c-24 -9 -80 -65 -98 -98 -9 -17 -16 -56 -16 -90 -2 -109
55 -165 166 -165 57 0 138 24 138 41 0 4 9 13 20 19 18 9 18 8 9 -19 -16 -44
-85 -119 -132 -141 -63 -31 -109 -27 -144 13 -16 18 -35 49 -43 68 -7 18 -20
41 -27 50 -15 18 -20 46 -22 122 -1 64 -21 52 -21 -13 0 -97 38 -219 82 -263
31 -32 74 -57 95 -57 38 0 127 52 178 104 140 144 118 326 -50 415 -38 20
-101 26 -135 14z m148 -121 c2 -14 -2 -22 -11 -22 -19 0 -40 26 -32 40 11 18
40 6 43 -18z"/>
<path d="M3716 6955 c-9 -26 -7 -32 5 -12 6 10 9 21 6 23 -2 3 -7 -2 -11 -11z"/>
<path d="M1030 3020 c0 -13 18 -22 24 -11 3 5 -1 11 -9 15 -8 3 -15 1 -15 -4z"/>
<path d="M9862 2800 c-25 -32 -56 -100 -48 -107 9 -9 24 7 50 52 45 82 44 114
-2 55z"/>
<path d="M9620 2667 c-19 -40 -42 -84 -52 -99 -20 -29 -23 -42 -9 -33 21 12
108 191 99 201 -2 2 -19 -29 -38 -69z"/>
<path d="M9763 2623 c-3 -10 -8 -21 -10 -25 -6 -12 31 4 39 16 12 17 9 26 -7
26 -9 0 -18 -8 -22 -17z"/>
<path d="M1990 9872 c0 -18 4 -32 9 -32 5 0 7 12 5 27 -7 39 -14 42 -14 5z"/>
<path d="M1984 9474 c3 -9 6 -18 6 -20 0 -2 5 -4 11 -4 8 0 9 4 0 13 -6 8 -8
17 -4 20 3 4 1 7 -6 7 -8 0 -11 -6 -7 -16z"/>
<path d="M2030 9460 c-8 -5 -11 -12 -7 -16 4 -4 1 -14 -6 -23 -10 -14 -10 -14
4 -4 9 7 20 9 25 5 4 -4 3 0 -4 9 -9 12 -9 18 0 27 14 14 9 15 -12 2z"/>
<path d="M6944 7036 c-12 -31 53 -124 197 -286 30 -34 55 -74 65 -105 15 -48
15 -52 -10 -129 -14 -43 -23 -82 -20 -87 8 -13 24 -11 24 3 0 6 11 35 25 64
14 29 28 74 32 99 5 40 2 51 -30 98 -19 28 -58 77 -87 107 -28 30 -58 67 -66
82 -8 15 -20 31 -27 35 -17 11 -67 86 -67 101 0 7 6 12 14 12 8 0 18 5 21 10
4 6 -8 10 -30 10 -21 0 -38 -6 -41 -14z"/>
<path d="M6745 6710 c-7 -12 33 -77 100 -160 29 -36 74 -110 101 -165 36 -76
49 -94 52 -77 6 36 -80 198 -153 287 -36 44 -68 90 -71 103 -6 23 -19 29 -29
12z"/>
<path d="M5907 2129 c7 -7 15 -10 18 -7 3 3 -2 9 -12 12 -14 6 -15 5 -6 -5z"/>
<path d="M1170 2060 c0 -5 7 -7 15 -4 8 4 15 8 15 10 0 2 -7 4 -15 4 -8 0 -15
-4 -15 -10z"/>
<path d="M6255 2059 c-4 -6 -5 -12 -2 -15 2 -3 7 2 10 11 7 17 1 20 -8 4z"/>
<path d="M6357 1990 c3 -11 7 -20 9 -20 2 0 4 9 4 20 0 11 -4 20 -9 20 -5 0
-7 -9 -4 -20z"/>
<path d="M5906 1988 c3 -5 10 -6 15 -3 13 9 11 12 -6 12 -8 0 -12 -4 -9 -9z"/>
<path d="M6269 1963 c-13 -16 -12 -17 4 -4 16 13 21 21 13 21 -2 0 -10 -8 -17
-17z"/>
<path d="M6090 1966 c0 -2 7 -7 16 -10 8 -3 12 -2 9 4 -6 10 -25 14 -25 6z"/>
<path d="M9110 1949 c-8 -5 -13 -9 -10 -10 3 0 13 -2 23 -4 9 -2 17 1 17 5 0
15 -15 19 -30 9z"/>
<path d="M9286 1935 c4 -8 8 -15 10 -15 2 0 4 7 4 15 0 8 -4 15 -10 15 -5 0
-7 -7 -4 -15z"/>
<path d="M6240 1916 c0 -2 7 -6 15 -10 8 -3 15 -1 15 4 0 6 -7 10 -15 10 -8 0
-15 -2 -15 -4z"/>
<path d="M9350 1911 c0 -6 4 -13 10 -16 6 -3 7 1 4 9 -7 18 -14 21 -14 7z"/>
<path d="M856 1863 c-6 -14 -5 -15 5 -6 7 7 10 15 7 18 -3 3 -9 -2 -12 -12z"/>
<path d="M1595 1869 c4 -5 11 -7 16 -4 5 4 9 -2 9 -12 0 -15 2 -16 10 -3 11
17 9 19 -19 25 -12 2 -19 0 -16 -6z"/>
<path d="M5629 1873 c-1 -5 -1 -12 0 -17 1 -4 -4 -16 -11 -25 -12 -14 -11 -14
4 -3 9 7 16 22 15 33 -1 19 -6 26 -8 12z"/>
<path d="M1090 1849 c0 -5 -4 -8 -9 -4 -5 3 -12 1 -15 -4 -4 -5 2 -8 11 -7 15
3 33 26 19 26 -3 0 -6 -5 -6 -11z"/>
<path d="M5450 1850 c-9 -6 -10 -10 -3 -10 6 0 15 5 18 10 8 12 4 12 -15 0z"/>
<path d="M5580 1829 c0 -11 4 -18 10 -14 5 3 7 12 3 20 -7 21 -13 19 -13 -6z"/>
<path d="M8730 1840 c-12 -7 -10 -9 7 -7 12 0 19 5 17 9 -6 10 -6 10 -24 -2z"/>
<path d="M5645 1831 c-3 -5 0 -13 6 -17 7 -4 9 -3 5 4 -3 5 0 13 6 15 9 4 10
6 1 6 -6 1 -14 -3 -18 -8z"/>
<path d="M5280 1826 c0 -2 8 -10 18 -17 15 -13 16 -12 3 4 -13 16 -21 21 -21
13z"/>
<path d="M5716 1816 c10 -8 21 -12 24 -10 5 6 -21 24 -34 24 -6 0 -1 -6 10
-14z"/>
<path d="M9325 1820 c-3 -5 -1 -10 4 -10 6 0 11 5 11 10 0 6 -2 10 -4 10 -3 0
-8 -4 -11 -10z"/>
<path d="M8433 1809 c3 -9 1 -21 -4 -26 -5 -5 -1 -9 10 -9 11 0 19 5 18 11 -1
5 4 9 11 8 14 -3 16 13 3 21 -5 4 -12 0 -14 -6 -4 -10 -8 -9 -17 2 -10 13 -11
13 -7 -1z"/>
<path d="M911 1794 c0 -11 3 -14 6 -6 3 7 2 16 -1 19 -3 4 -6 -2 -5 -13z"/>
<path d="M1858 1803 c7 -3 16 -2 19 1 4 3 -2 6 -13 5 -11 0 -14 -3 -6 -6z"/>
<path d="M9635 1801 c-3 -5 -2 -12 3 -15 5 -3 9 1 9 9 0 17 -3 19 -12 6z"/>
<path d="M9080 1790 c0 -6 4 -9 9 -6 5 4 12 1 14 -4 3 -6 4 -5 3 2 -3 15 -26
23 -26 8z"/>
<path d="M8351 1781 c-8 -5 -9 -11 -3 -15 5 -3 12 1 16 9 6 17 6 18 -13 6z"/>
<path d="M5525 1770 c-3 -5 -1 -10 4 -10 6 0 11 5 11 10 0 6 -2 10 -4 10 -3 0
-8 -4 -11 -10z"/>
<path d="M5664 1769 c-4 -7 -3 -9 4 -5 6 3 15 -2 21 -11 6 -10 11 -13 11 -7 0
20 -27 37 -36 23z"/>
<path d="M5933 1765 c0 -8 4 -12 9 -9 5 3 6 10 3 15 -9 13 -12 11 -12 -6z"/>
<path d="M8256 1767 c3 -10 9 -15 12 -12 3 3 0 11 -7 18 -10 9 -11 8 -5 -6z"/>
<path d="M5265 1760 c-3 -5 -1 -10 4 -10 6 0 11 5 11 10 0 6 -2 10 -4 10 -3 0
-8 -4 -11 -10z"/>
<path d="M1500 1751 c0 -6 4 -12 8 -15 5 -3 9 1 9 9 0 8 -4 15 -9 15 -4 0 -8
-4 -8 -9z"/>
<path d="M5833 1740 c-11 -16 -10 -18 2 -14 8 4 15 12 15 20 0 19 -3 18 -17
-6z"/>
<path d="M8286 1745 c4 -8 10 -12 15 -9 14 8 10 24 -6 24 -9 0 -12 -6 -9 -15z"/>
<path d="M1727 1735 c3 -8 9 -12 14 -9 12 7 11 11 -5 17 -10 4 -13 1 -9 -8z"/>
<path d="M2116 1722 c-2 -4 -1 -14 4 -22 7 -11 9 -9 7 8 -1 24 -3 26 -11 14z"/>
<path d="M5514 1709 c0 -10 4 -19 8 -19 4 0 8 6 8 14 0 8 -4 17 -8 20 -4 2 -8
-4 -8 -15z"/>
<path d="M9735 1710 c-10 -11 -15 -20 -12 -20 4 0 16 9 27 20 11 11 16 20 12
20 -5 0 -17 -9 -27 -20z"/>
<path d="M5260 1710 c0 -5 5 -10 11 -10 5 0 7 5 4 10 -3 6 -8 10 -11 10 -2 0
-4 -4 -4 -10z"/>
<path d="M1220 1699 c0 -5 5 -7 10 -4 6 3 10 8 10 11 0 2 -4 4 -10 4 -5 0 -10
-5 -10 -11z"/>
<path d="M8086 1702 c-3 -5 1 -9 9 -9 8 0 12 4 9 9 -3 4 -7 8 -9 8 -2 0 -6 -4
-9 -8z"/>
<path d="M1800 1690 c-9 -6 -10 -10 -3 -10 6 0 15 5 18 10 8 12 4 12 -15 0z"/>
<path d="M5552 1664 c-7 -8 -8 -14 -3 -14 10 0 25 19 20 25 -2 1 -10 -3 -17
-11z"/>
<path d="M8540 1670 c0 -5 5 -10 11 -10 5 0 7 5 4 10 -3 6 -8 10 -11 10 -2 0
-4 -4 -4 -10z"/>
<path d="M9930 1671 c0 -6 4 -13 10 -16 6 -3 7 1 4 9 -7 18 -14 21 -14 7z"/>
<path d="M2040 1660 c0 -6 7 -10 15 -10 8 0 15 2 15 4 0 2 -7 6 -15 10 -8 3
-15 1 -15 -4z"/>
<path d="M5715 1659 c-4 -6 -5 -12 -2 -15 2 -3 7 2 10 11 7 17 1 20 -8 4z"/>
<path d="M7956 1657 c3 -10 9 -15 12 -12 3 3 0 11 -7 18 -10 9 -11 8 -5 -6z"/>
<path d="M8415 1661 c-3 -5 -2 -12 3 -15 5 -3 9 1 9 9 0 17 -3 19 -12 6z"/>
<path d="M9846 1655 c4 -8 11 -15 16 -15 6 0 5 6 -2 15 -7 8 -14 15 -16 15 -2
0 -1 -7 2 -15z"/>
<path d="M2003 1645 c0 -8 4 -12 9 -9 5 3 6 10 3 15 -9 13 -12 11 -12 -6z"/>
<path d="M2173 1645 c0 -8 4 -12 9 -9 5 3 6 10 3 15 -9 13 -12 11 -12 -6z"/>
<path d="M8673 1645 c-3 -9 -3 -19 1 -22 3 -4 6 1 6 11 0 10 5 14 12 10 7 -4
8 -3 4 4 -10 16 -15 15 -23 -3z"/>
<path d="M8765 1650 c-3 -6 1 -7 9 -4 18 7 21 14 7 14 -6 0 -13 -4 -16 -10z"/>
<path d="M8050 1640 c0 -5 5 -10 10 -10 6 0 10 5 10 10 0 6 -4 10 -10 10 -5 0
-10 -4 -10 -10z"/>
<path d="M9085 1640 c-4 -6 1 -7 11 -3 13 5 16 2 12 -9 -4 -8 -1 -15 7 -15 10
0 11 5 4 19 -11 20 -25 23 -34 8z"/>
<path d="M1827 1623 c3 -7 6 -13 8 -13 2 0 5 6 8 13 3 8 -1 14 -8 14 -7 0 -11
-6 -8 -14z"/>
<path d="M2116 1632 c-3 -5 1 -9 9 -9 8 0 12 4 9 9 -3 4 -7 8 -9 8 -2 0 -6 -4
-9 -8z"/>
<path d="M5838 1633 c7 -3 16 -2 19 1 4 3 -2 6 -13 5 -11 0 -14 -3 -6 -6z"/>
<path d="M5300 1626 c0 -2 8 -10 18 -17 15 -13 16 -12 3 4 -13 16 -21 21 -21
13z"/>
<path d="M8200 1626 c0 -2 8 -10 18 -17 15 -13 16 -12 3 4 -13 16 -21 21 -21
13z"/>
<path d="M8295 1611 c-3 -7 0 -8 10 -5 11 5 14 2 9 -10 -3 -9 -2 -16 4 -16 13
0 8 33 -5 37 -6 2 -14 -1 -18 -6z"/>
<path d="M5503 1595 c0 -7 8 -10 19 -7 10 2 18 6 18 7 0 1 -8 5 -18 7 -11 3
-19 0 -19 -7z"/>
<path d="M9584 1594 c-18 -14 -18 -15 4 -4 12 6 22 13 22 15 0 8 -5 6 -26 -11z"/>
<path d="M8786 1588 c3 -5 10 -6 15 -3 13 9 11 12 -6 12 -8 0 -12 -4 -9 -9z"/>
<path d="M2533 1575 c0 -8 4 -15 9 -15 4 0 8 4 8 9 0 6 -4 12 -8 15 -5 3 -9
-1 -9 -9z"/>
<path d="M5440 1581 c0 -6 4 -13 10 -16 6 -3 7 1 4 9 -7 18 -14 21 -14 7z"/>
<path d="M5865 1580 c3 -5 11 -10 16 -10 6 0 7 5 4 10 -3 6 -11 10 -16 10 -6
0 -7 -4 -4 -10z"/>
<path d="M2710 1568 c0 -4 7 -8 15 -8 8 0 15 4 15 8 0 5 -7 9 -15 9 -8 0 -15
-4 -15 -9z"/>
<path d="M5610 1570 c0 -5 5 -10 11 -10 5 0 7 5 4 10 -3 6 -8 10 -11 10 -2 0
-4 -4 -4 -10z"/>
<path d="M8547 1569 c7 -7 15 -10 18 -7 3 3 -2 9 -12 12 -14 6 -15 5 -6 -5z"/>
<path d="M9340 1560 c-9 -6 -10 -10 -3 -10 6 0 15 5 18 10 8 12 4 12 -15 0z"/>
<path d="M5810 1550 c0 -6 7 -10 15 -10 8 0 15 2 15 4 0 2 -7 6 -15 10 -8 3
-15 1 -15 -4z"/>
<path d="M5950 1550 c0 -5 5 -10 11 -10 5 0 7 5 4 10 -3 6 -8 10 -11 10 -2 0
-4 -4 -4 -10z"/>
<path d="M7680 1551 c0 -7 -5 -9 -12 -5 -6 4 -8 3 -4 -4 3 -5 0 -13 -6 -15 -8
-4 -7 -6 3 -6 17 -1 34 27 24 37 -3 3 -5 0 -5 -7z"/>
<path d="M8150 1550 c0 -5 5 -10 11 -10 5 0 7 5 4 10 -3 6 -8 10 -11 10 -2 0
-4 -4 -4 -10z"/>
<path d="M8220 1546 c7 -7 13 -7 20 0 6 6 3 10 -10 10 -13 0 -16 -4 -10 -10z"/>
<path d="M2898 1543 c7 -3 16 -2 19 1 4 3 -2 6 -13 5 -11 0 -14 -3 -6 -6z"/>
<path d="M7925 1540 c-3 -6 1 -7 9 -4 18 7 21 14 7 14 -6 0 -13 -4 -16 -10z"/>
<path d="M5653 1525 c0 -11 4 -12 14 -4 7 6 13 13 13 15 0 2 -6 4 -13 4 -8 0
-14 -7 -14 -15z"/>
<path d="M8847 1527 c-3 -8 1 -14 8 -14 7 0 11 6 8 14 -3 7 -6 13 -8 13 -2 0
-5 -6 -8 -13z"/>
<path d="M5540 1511 c0 -6 4 -13 10 -16 6 -3 7 1 4 9 -7 18 -14 21 -14 7z"/>
<path d="M9776 1503 c-6 -14 -5 -15 5 -6 7 7 10 15 7 18 -3 3 -9 -2 -12 -12z"/>
<path d="M2795 1500 c-3 -5 1 -10 10 -10 9 0 13 5 10 10 -3 6 -8 10 -10 10 -2
0 -7 -4 -10 -10z"/>
<path d="M7725 1501 c-3 -5 -2 -12 3 -15 5 -3 9 1 9 9 0 17 -3 19 -12 6z"/>
<path d="M1909 1498 c-5 -16 -4 -46 2 -42 4 2 7 13 6 24 -1 17 -5 26 -8 18z"/>
<path d="M5460 1490 c-9 -6 -10 -10 -3 -10 6 0 15 5 18 10 8 12 4 12 -15 0z"/>
<path d="M6000 1490 c0 -5 5 -10 10 -10 6 0 10 5 10 10 0 6 -4 10 -10 10 -5 0
-10 -4 -10 -10z"/>
<path d="M7540 1491 c0 -6 4 -13 10 -16 6 -3 7 1 4 9 -7 18 -14 21 -14 7z"/>
<path d="M7566 1487 c3 -10 9 -15 12 -12 3 3 0 11 -7 18 -10 9 -11 8 -5 -6z"/>
<path d="M9150 1489 c0 -5 5 -7 10 -4 6 3 10 8 10 11 0 2 -4 4 -10 4 -5 0 -10
-5 -10 -11z"/>
<path d="M8755 1479 c-4 -6 -5 -12 -2 -15 2 -3 7 2 10 11 7 17 1 20 -8 4z"/>
<path d="M9725 1470 c-3 -5 -1 -10 4 -10 6 0 11 5 11 10 0 6 -2 10 -4 10 -3 0
-8 -4 -11 -10z"/>
<path d="M10180 1470 c-9 -6 -10 -10 -3 -10 6 0 15 5 18 10 8 12 4 12 -15 0z"/>
<path d="M2750 1461 c0 -6 4 -13 10 -16 6 -3 7 1 4 9 -7 18 -14 21 -14 7z"/>
<path d="M5526 1453 c-6 -14 -5 -15 5 -6 7 7 10 15 7 18 -3 3 -9 -2 -12 -12z"/>
<path d="M8818 1463 c6 -2 18 -2 25 0 6 3 1 5 -13 5 -14 0 -19 -2 -12 -5z"/>
<path d="M2988 1453 c6 -2 18 -2 25 0 6 3 1 5 -13 5 -14 0 -19 -2 -12 -5z"/>
<path d="M7587 1453 c-10 -9 -9 -23 1 -23 5 0 9 7 9 15 0 17 -1 18 -10 8z"/>
<path d="M7816 1448 c3 -5 10 -6 15 -3 13 9 11 12 -6 12 -8 0 -12 -4 -9 -9z"/>
<path d="M2713 1433 c0 -9 4 -10 14 -2 7 6 13 12 13 14 0 1 -6 2 -13 2 -8 0
-14 -6 -14 -14z"/>
<path d="M2800 1439 c0 -5 5 -7 10 -4 6 3 10 8 10 11 0 2 -4 4 -10 4 -5 0 -10
-5 -10 -11z"/>
<path d="M6210 1440 c0 -5 5 -10 11 -10 5 0 7 5 4 10 -3 6 -8 10 -11 10 -2 0
-4 -4 -4 -10z"/>
<path d="M9190 1446 c0 -2 7 -7 16 -10 8 -3 12 -2 9 4 -6 10 -25 14 -25 6z"/>
<path d="M5900 1430 c0 -5 5 -10 11 -10 5 0 7 5 4 10 -3 6 -8 10 -11 10 -2 0
-4 -4 -4 -10z"/>
<path d="M7977 1427 c-3 -8 -1 -20 5 -28 8 -11 9 -11 5 3 -3 9 -1 18 6 21 8 2
8 5 0 10 -6 4 -13 1 -16 -6z"/>
<path d="M8650 1429 c0 -5 5 -7 10 -4 6 3 10 8 10 11 0 2 -4 4 -10 4 -5 0 -10
-5 -10 -11z"/>
<path d="M6200 1411 c0 -7 -5 -9 -12 -5 -7 5 -8 3 -3 -5 5 -9 10 -10 18 -2 6
6 8 14 4 18 -4 3 -7 1 -7 -6z"/>
<path d="M8246 1412 c-2 -4 4 -8 14 -8 10 0 16 4 14 8 -3 4 -9 8 -14 8 -5 0
-11 -4 -14 -8z"/>
<path d="M9767 1409 c7 -7 15 -10 18 -7 3 3 -2 9 -12 12 -14 6 -15 5 -6 -5z"/>
<path d="M7950 1401 c0 -6 4 -13 10 -16 6 -3 7 1 4 9 -7 18 -14 21 -14 7z"/>
<path d="M8050 1400 c0 -5 5 -10 11 -10 5 0 7 5 4 10 -3 6 -8 10 -11 10 -2 0
-4 -4 -4 -10z"/>
<path d="M2737 1386 c-4 -10 -1 -13 8 -9 8 3 12 9 9 14 -7 12 -11 11 -17 -5z"/>
<path d="M9928 1393 c7 -3 16 -2 19 1 4 3 -2 6 -13 5 -11 0 -14 -3 -6 -6z"/>
<path d="M7849 1368 c8 -10 9 -18 3 -18 -5 0 -12 -6 -15 -13 -3 -8 1 -14 9
-14 7 0 11 4 8 8 -2 4 2 9 8 12 9 3 7 10 -6 23 -16 15 -17 16 -7 2z"/>
<path d="M7870 1375 c0 -2 9 -9 20 -15 16 -9 18 -8 14 5 -5 13 -34 22 -34 10z"/>
<path d="M2510 1359 c0 -5 5 -7 10 -4 6 3 10 8 10 11 0 2 -4 4 -10 4 -5 0 -10
-5 -10 -11z"/>
<path d="M8591 1354 c0 -11 3 -14 6 -6 3 7 2 16 -1 19 -3 4 -6 -2 -5 -13z"/>
<path d="M3133 1335 c0 -8 4 -15 9 -15 4 0 8 4 8 9 0 6 -4 12 -8 15 -5 3 -9
-1 -9 -9z"/>
<path d="M3070 1330 c0 -5 7 -10 16 -10 8 0 12 5 9 10 -3 6 -10 10 -16 10 -5
0 -9 -4 -9 -10z"/>
<path d="M9862 1324 c9 -9 21 -15 27 -13 6 2 -2 10 -17 17 -25 11 -25 11 -10
-4z"/>
<path d="M2500 1320 c-9 -6 -10 -10 -3 -10 6 0 15 5 18 10 8 12 4 12 -15 0z"/>
<path d="M2946 1318 c3 -5 10 -6 15 -3 13 9 11 12 -6 12 -8 0 -12 -4 -9 -9z"/>
<path d="M7560 1325 c0 -5 5 -17 10 -25 5 -8 10 -10 10 -5 0 6 -5 17 -10 25
-5 8 -10 11 -10 5z"/>
<path d="M7793 1313 c0 -9 4 -10 14 -2 7 6 13 12 13 14 0 1 -6 2 -13 2 -8 0
-14 -6 -14 -14z"/>
<path d="M9609 1313 c-13 -16 -12 -17 4 -4 16 13 21 21 13 21 -2 0 -10 -8 -17
-17z"/>
<path d="M3155 1309 c-4 -6 -5 -12 -2 -15 2 -3 7 2 10 11 7 17 1 20 -8 4z"/>
<path d="M7879 1303 c-13 -16 -12 -17 4 -4 16 13 21 21 13 21 -2 0 -10 -8 -17
-17z"/>
<path d="M8110 1316 c0 -2 7 -7 16 -10 8 -3 12 -2 9 4 -6 10 -25 14 -25 6z"/>
<path d="M8150 1316 c0 -2 8 -10 18 -17 15 -13 16 -12 3 4 -13 16 -21 21 -21
13z"/>
<path d="M9795 1309 c-4 -6 -5 -12 -2 -15 2 -3 7 2 10 11 7 17 1 20 -8 4z"/>
<path d="M3190 1300 c0 -5 5 -10 11 -10 5 0 7 5 4 10 -3 6 -8 10 -11 10 -2 0
-4 -4 -4 -10z"/>
<path d="M7660 1280 c-9 -6 -10 -10 -3 -10 6 0 15 5 18 10 8 12 4 12 -15 0z"/>
<path d="M8183 1282 c-7 -4 -9 -13 -4 -21 6 -9 10 -7 14 8 3 12 4 21 4 21 -1
0 -7 -4 -14 -8z"/>
<path d="M7830 1266 c0 -8 4 -17 9 -20 5 -4 7 3 4 14 -6 23 -13 26 -13 6z"/>
<path d="M7885 1270 c-3 -6 1 -7 9 -4 18 7 21 14 7 14 -6 0 -13 -4 -16 -10z"/>
<path d="M2860 1260 c0 -6 4 -9 9 -6 5 4 12 1 14 -4 3 -6 4 -5 3 2 -3 15 -26
23 -26 8z"/>
<path d="M2906 1261 c-4 -5 -2 -12 3 -15 5 -4 12 -2 15 3 4 5 2 12 -3 15 -5 4
-12 2 -15 -3z"/>
<path d="M7996 1253 c-6 -14 -5 -15 5 -6 7 7 10 15 7 18 -3 3 -9 -2 -12 -12z"/>
<path d="M8333 1249 c-2 -17 1 -18 12 -9 8 7 12 16 9 21 -9 16 -20 10 -21 -12z"/>
<path d="M8404 1250 c0 -13 4 -16 10 -10 7 7 7 13 0 20 -6 6 -10 3 -10 -10z"/>
<path d="M7786 1248 c3 -4 11 -5 19 -1 21 7 19 12 -4 10 -11 0 -18 -5 -15 -9z"/>
<path d="M7615 1240 c-3 -5 -1 -10 4 -10 6 0 11 5 11 10 0 6 -2 10 -4 10 -3 0
-8 -4 -11 -10z"/>
<path d="M8111 1234 c0 -11 3 -14 6 -6 3 7 2 16 -1 19 -3 4 -6 -2 -5 -13z"/>
<path d="M8898 1243 c7 -3 16 -2 19 1 4 3 -2 6 -13 5 -11 0 -14 -3 -6 -6z"/>
<path d="M7525 1220 c-3 -5 -1 -10 4 -10 6 0 11 5 11 10 0 6 -2 10 -4 10 -3 0
-8 -4 -11 -10z"/>
<path d="M7625 1220 c-16 -7 -17 -9 -3 -9 9 -1 20 4 23 9 7 11 7 11 -20 0z"/>
<path d="M5384 958 c-4 -6 -3 -8 4 -4 5 3 13 0 15 -6 3 -8 6 -6 6 5 1 19 -14
23 -25 5z"/>
<path d="M5396 902 c-3 -5 1 -9 9 -9 8 0 12 4 9 9 -3 4 -7 8 -9 8 -2 0 -6 -4
-9 -8z"/>
<path d="M5346 885 c-9 -26 -7 -32 5 -12 6 10 9 21 6 23 -2 3 -7 -2 -11 -11z"/>
<path d="M5456 885 c4 -8 8 -15 10 -15 2 0 4 7 4 15 0 8 -4 15 -10 15 -5 0 -7
-7 -4 -15z"/>
<path d="M5380 869 c0 -5 5 -7 10 -4 6 3 10 8 10 11 0 2 -4 4 -10 4 -5 0 -10
-5 -10 -11z"/>
<path d="M5543 865 c4 -5 -1 -17 -10 -27 -15 -17 -15 -18 -1 -13 22 9 30 33
15 41 -7 4 -9 3 -4 -1z"/>
<path d="M5670 868 c0 -3 7 -19 15 -34 8 -16 15 -22 15 -14 -1 8 -7 24 -15 34
-8 11 -15 17 -15 14z"/>
<path d="M5385 840 c3 -5 8 -10 11 -10 2 0 4 5 4 10 0 6 -5 10 -11 10 -5 0 -7
-4 -4 -10z"/>
<path d="M5786 833 c-6 -14 -5 -15 5 -6 7 7 10 15 7 18 -3 3 -9 -2 -12 -12z"/>
<path d="M5815 826 c-10 -7 -15 -19 -12 -27 4 -10 6 -9 6 4 1 18 30 23 47 8 5
-5 18 -5 29 -1 17 8 18 9 3 11 -28 3 -32 4 -44 11 -6 4 -19 1 -29 -6z"/>
<path d="M5346 822 c-3 -5 1 -9 9 -9 8 0 12 4 9 9 -3 4 -7 8 -9 8 -2 0 -6 -4
-9 -8z"/>
<path d="M5391 804 c0 -11 3 -14 6 -6 3 7 2 16 -1 19 -3 4 -6 -2 -5 -13z"/>
<path d="M5329 793 c16 -31 14 -37 -6 -22 -16 13 -17 12 -5 -3 8 -9 11 -23 7
-30 -4 -7 1 -4 9 6 9 11 16 24 16 29 0 4 4 5 10 2 6 -4 7 1 3 11 -4 12 -8 14
-11 5 -3 -8 -8 -7 -19 6 -13 17 -13 16 -4 -4z"/>
<path d="M5923 803 c19 -5 23 -28 7 -38 -5 -3 -10 -14 -10 -23 1 -14 2 -14 12
3 6 11 16 23 22 27 14 9 -12 38 -33 37 -13 -1 -13 -2 2 -6z"/>
<path d="M5576 788 c3 -5 10 -6 15 -3 13 9 11 12 -6 12 -8 0 -12 -4 -9 -9z"/>
<path d="M5740 786 c0 -2 8 -10 18 -17 15 -13 16 -12 3 4 -13 16 -21 21 -21
13z"/>
<path d="M5850 781 c0 -5 5 -13 10 -16 6 -3 10 -2 10 4 0 5 -4 13 -10 16 -5 3
-10 2 -10 -4z"/>
<path d="M5496 768 c3 -4 9 -8 15 -8 5 0 9 4 9 8 0 5 -7 9 -15 9 -8 0 -12 -4
-9 -9z"/>
<path d="M5898 758 c2 -10 6 -18 7 -18 1 0 5 8 7 18 3 11 0 19 -7 19 -7 0 -10
-8 -7 -19z"/>
<path d="M3350 766 c0 -2 8 -10 18 -17 15 -13 16 -12 3 4 -13 16 -21 21 -21
13z"/>
<path d="M5552 761 c-11 -7 -11 -9 0 -14 9 -3 15 1 15 9 0 8 -1 14 -1 14 -1 0
-7 -4 -14 -9z"/>
<path d="M5637 747 c-3 -8 1 -14 8 -14 7 0 11 6 8 14 -3 7 -6 13 -8 13 -2 0
-5 -6 -8 -13z"/>
<path d="M3463 735 c0 -8 4 -12 8 -9 4 2 10 -2 12 -8 4 -8 6 -9 6 -2 1 6 -5
17 -12 23 -10 8 -14 7 -14 -4z"/>
<path d="M5670 746 c0 -2 7 -7 16 -10 8 -3 12 -2 9 4 -6 10 -25 14 -25 6z"/>
<path d="M5331 707 c-13 -21 -12 -21 5 -5 10 10 16 20 13 22 -3 3 -11 -5 -18
-17z"/>
<path d="M5806 713 c-6 -14 -5 -15 5 -6 7 7 10 15 7 18 -3 3 -9 -2 -12 -12z"/>
<path d="M6006 722 c-3 -5 1 -9 9 -9 8 0 12 4 9 9 -3 4 -7 8 -9 8 -2 0 -6 -4
-9 -8z"/>
<path d="M5450 710 c-9 -6 -10 -10 -3 -10 6 0 15 5 18 10 8 12 4 12 -15 0z"/>
<path d="M5363 685 c0 -8 4 -12 9 -9 5 3 6 10 3 15 -9 13 -12 11 -12 -6z"/>
<path d="M5394 684 c1 -8 4 -15 7 -16 2 -2 3 -1 2 1 -2 2 2 9 7 16 7 8 5 12
-4 12 -8 0 -13 -6 -12 -13z"/>
<path d="M5510 689 c0 -5 5 -7 10 -4 6 3 10 8 10 11 0 2 -4 4 -10 4 -5 0 -10
-5 -10 -11z"/>
<path d="M5240 670 c-8 -5 -12 -11 -9 -14 2 -3 11 -1 19 4 8 5 12 11 9 14 -2
3 -11 1 -19 -4z"/>
<path d="M5470 666 c7 -7 13 -7 20 0 6 6 3 10 -10 10 -13 0 -16 -4 -10 -10z"/>
<path d="M5525 659 c-11 -17 1 -21 15 -4 8 9 8 15 2 15 -6 0 -14 -5 -17 -11z"/>
<path d="M5487 639 c7 -7 15 -10 18 -7 3 3 -2 9 -12 12 -14 6 -15 5 -6 -5z"/>
<path d="M5303 623 c-19 -7 -16 -19 6 -19 11 0 17 5 14 13 -3 7 -6 13 -7 12 0
0 -7 -3 -13 -6z"/>
<path d="M5625 620 c-4 -6 -11 -8 -16 -5 -5 3 -6 -1 -3 -9 4 -10 1 -16 -7 -16
-7 0 -9 -3 -6 -7 4 -3 18 6 31 20 14 15 21 27 16 27 -5 0 -12 -5 -15 -10z"/>
<path d="M5748 623 c7 -3 16 -2 19 1 4 3 -2 6 -13 5 -11 0 -14 -3 -6 -6z"/>
<path d="M5350 613 c0 -6 8 -17 18 -24 16 -13 16 -13 2 6 -8 11 -16 22 -17 24
-2 2 -3 0 -3 -6z"/>
<path d="M5450 611 c0 -6 -9 -11 -21 -11 -11 0 -18 -4 -15 -8 7 -12 65 -2 73
12 3 6 3 8 -2 4 -4 -4 -14 -3 -22 3 -9 9 -13 8 -13 0z"/>
<path d="M5788 593 c7 -3 16 -2 19 1 4 3 -2 6 -13 5 -11 0 -14 -3 -6 -6z"/>
<path d="M5625 581 c-3 -5 -2 -12 3 -15 5 -3 9 1 9 9 0 17 -3 19 -12 6z"/>
<path d="M6045 580 c-4 -6 -12 -7 -18 -3 -7 4 -6 -1 2 -11 12 -15 12 -19 1
-26 -7 -4 -20 -6 -29 -2 -9 3 -13 2 -9 -3 4 -4 3 -15 -4 -22 -6 -8 5 -5 25 7
20 12 37 26 37 32 0 5 6 6 13 2 9 -6 9 -5 0 8 -7 8 -10 18 -6 21 3 4 4 7 0 7
-3 0 -9 -5 -12 -10z"/>
<path d="M5266 563 c-6 -14 -5 -15 5 -6 7 7 10 15 7 18 -3 3 -9 -2 -12 -12z"/>
<path d="M5196 553 c-6 -14 -5 -15 5 -6 7 7 10 15 7 18 -3 3 -9 -2 -12 -12z"/>
<path d="M5660 551 c0 -5 7 -12 16 -15 14 -5 15 -4 4 9 -14 17 -20 19 -20 6z"/>
<path d="M5315 540 c-3 -5 -1 -10 4 -10 6 0 11 5 11 10 0 6 -2 10 -4 10 -3 0
-8 -4 -11 -10z"/>
<path d="M5385 540 c-16 -7 -17 -9 -3 -9 9 -1 20 4 23 9 7 11 7 11 -20 0z"/>
<path d="M5800 540 c0 -5 7 -10 16 -10 8 0 12 5 9 10 -3 6 -10 10 -16 10 -5 0
-9 -4 -9 -10z"/>
<path d="M3529 524 c6 -3 7 -12 4 -20 -3 -8 -1 -14 5 -14 14 0 8 33 -7 36 -6
1 -7 0 -2 -2z"/>
<path d="M5520 515 c0 -8 4 -15 10 -15 5 0 7 7 4 15 -4 8 -8 15 -10 15 -2 0
-4 -7 -4 -15z"/>
<path d="M5546 517 c3 -10 9 -15 12 -12 3 3 0 11 -7 18 -10 9 -11 8 -5 -6z"/>
<path d="M5327 501 c-3 -13 -1 -18 9 -14 7 2 10 11 7 19 -7 19 -10 18 -16 -5z"/>
<path d="M5880 516 c0 -2 7 -6 15 -10 8 -3 15 -1 15 4 0 6 -7 10 -15 10 -8 0
-15 -2 -15 -4z"/>
<path d="M5297 479 c4 -13 8 -18 11 -10 2 7 -1 18 -6 23 -8 8 -9 4 -5 -13z"/>
<path d="M5383 475 c0 -8 4 -12 9 -9 5 3 6 10 3 15 -9 13 -12 11 -12 -6z"/>
<path d="M5436 482 c-3 -5 1 -9 9 -9 8 0 12 4 9 9 -3 4 -7 8 -9 8 -2 0 -6 -4
-9 -8z"/>
<path d="M5490 486 c0 -2 7 -6 15 -10 8 -3 15 -1 15 4 0 6 -7 10 -15 10 -8 0
-15 -2 -15 -4z"/>
<path d="M5359 450 c16 -14 19 -20 8 -20 -9 0 -14 -10 -14 -26 l0 -26 18 28
c17 26 17 30 2 46 -9 10 -21 18 -27 18 -6 -1 0 -10 13 -20z"/>
<path d="M5525 460 c-3 -5 -1 -10 4 -10 6 0 11 5 11 10 0 6 -2 10 -4 10 -3 0
-8 -4 -11 -10z"/>
<path d="M5115 450 c-3 -5 -1 -10 4 -10 6 0 11 5 11 10 0 6 -2 10 -4 10 -3 0
-8 -4 -11 -10z"/>
<path d="M5167 453 c-11 -10 -8 -20 6 -20 8 0 14 6 14 14 0 14 -10 17 -20 6z"/>
<path d="M5267 440 c3 -11 9 -23 14 -26 5 -3 6 3 2 12 -4 12 -3 15 5 10 7 -4
12 -5 12 -2 0 3 -9 10 -19 15 -16 9 -18 8 -14 -9z"/>
<path d="M5486 446 c3 -9 11 -16 16 -16 13 0 5 23 -10 28 -7 2 -10 -2 -6 -12z"/>
<path d="M5050 440 c7 -5 8 -9 2 -11 -6 -2 -3 -10 6 -19 14 -13 15 -12 9 3 -4
10 0 20 10 25 13 8 10 10 -12 10 -16 0 -22 -4 -15 -8z"/>
<path d="M5230 440 c-9 -6 -10 -10 -3 -10 6 0 15 5 18 10 8 12 4 12 -15 0z"/>
<path d="M5401 417 c-13 -21 -12 -21 5 -5 10 10 16 20 13 22 -3 3 -11 -5 -18
-17z"/>
<path d="M5459 412 c-11 -14 -11 -15 0 -5 7 6 20 9 27 6 8 -3 14 -3 14 0 0 14
-30 14 -41 -1z"/>
<path d="M5545 420 c-3 -6 1 -7 9 -4 18 7 21 14 7 14 -6 0 -13 -4 -16 -10z"/>
<path d="M5670 410 c0 -5 7 -7 15 -4 8 4 15 8 15 10 0 2 -7 4 -15 4 -8 0 -15
-4 -15 -10z"/>
<path d="M5030 400 c0 -5 5 -10 11 -10 8 0 7 -6 -2 -17 -13 -16 -12 -17 4 -4
13 10 15 17 6 27 -14 17 -19 18 -19 4z"/>
<path d="M5421 394 c0 -11 3 -14 6 -6 3 7 2 16 -1 19 -3 4 -6 -2 -5 -13z"/>
<path d="M5105 390 c3 -5 8 -10 11 -10 2 0 4 5 4 10 0 6 -5 10 -11 10 -5 0 -7
-4 -4 -10z"/>
<path d="M5266 369 c-13 -26 -13 -29 -1 -19 8 7 15 19 15 27 0 8 5 11 12 7 7
-4 8 -3 4 4 -10 17 -13 15 -30 -19z"/>
<path d="M5723 383 c0 -10 4 -10 16 -1 9 7 18 13 20 15 2 1 -5 1 -16 0 -11 0
-20 -7 -20 -14z"/>
<path d="M5148 377 c7 -8 10 -16 7 -19 -3 -2 1 -5 9 -5 18 0 10 24 -11 31 -12
5 -13 4 -5 -7z"/>
<path d="M5226 381 c-3 -5 1 -12 10 -15 8 -3 13 -2 9 3 -3 5 1 12 7 14 8 4 7
6 -4 6 -9 1 -19 -3 -22 -8z"/>
<path d="M5531 374 c0 -11 3 -14 6 -6 3 7 2 16 -1 19 -3 4 -6 -2 -5 -13z"/>
<path d="M5440 369 c0 -5 5 -7 10 -4 6 3 10 8 10 11 0 2 -4 4 -10 4 -5 0 -10
-5 -10 -11z"/>
<path d="M5593 365 c0 -8 4 -12 9 -9 5 3 6 10 3 15 -9 13 -12 11 -12 -6z"/>
<path d="M5640 370 c0 -5 7 -7 15 -4 8 4 15 8 15 10 0 2 -7 4 -15 4 -8 0 -15
-4 -15 -10z"/>
<path d="M3606 362 c-3 -5 1 -9 9 -9 8 0 12 4 9 9 -3 4 -7 8 -9 8 -2 0 -6 -4
-9 -8z"/>
<path d="M5340 350 c0 -5 5 -10 11 -10 5 0 7 5 4 10 -3 6 -8 10 -11 10 -2 0
-4 -4 -4 -10z"/>
<path d="M5280 346 c0 -2 7 -7 16 -10 8 -3 12 -2 9 4 -6 10 -25 14 -25 6z"/>
<path d="M5540 340 c0 -5 5 -10 10 -10 6 0 10 5 10 10 0 6 -4 10 -10 10 -5 0
-10 -4 -10 -10z"/>
<path d="M5145 329 c-4 -6 -4 -13 -1 -16 3 -4 6 -1 6 5 0 6 8 13 18 15 15 4
15 5 0 6 -9 0 -20 -4 -23 -10z"/>
<path d="M5016 307 c3 -10 9 -15 12 -12 3 3 0 11 -7 18 -10 9 -11 8 -5 -6z"/>
<path d="M5262 295 c-7 -8 -9 -15 -4 -15 5 0 15 7 22 15 16 19 -1 19 -18 0z"/>
<path d="M5065 290 c-3 -6 1 -7 9 -4 18 7 21 14 7 14 -6 0 -13 -4 -16 -10z"/>
<path d="M5400 296 c0 -2 7 -7 16 -10 8 -3 12 -2 9 4 -6 10 -25 14 -25 6z"/>
<path d="M5239 253 c-13 -17 -13 -17 6 -3 11 8 22 16 24 17 2 2 0 3 -6 3 -6 0
-17 -8 -24 -17z"/>
<path d="M10080 80 l0 -80 80 0 80 0 0 80 0 80 -80 0 -80 0 0 -80z"/>
</g>
</svg>
